<svg width="735" height="735" viewBox="0 0 735 735" fill="none" xmlns="http://www.w3.org/2000/svg">
<path fill-rule="evenodd" clip-rule="evenodd" d="M366.101 1.39116C366.098 0.624294 366.718 3.21078e-05 367.484 3.22572e-07C367.49 1.07525e-07 367.495 0 367.5 0C367.505 0 367.51 1.07935e-07 367.516 3.23803e-07C368.282 3.21716e-05 368.902 0.624294 368.899 1.39116C368.896 2.15802 368.267 2.77708 367.5 2.77708C366.733 2.77708 366.104 2.15802 366.101 1.39116ZM253.002 19.6493C252.762 18.9208 253.167 18.1324 253.897 17.8956C254.626 17.6588 255.418 18.0583 255.652 18.7886C255.886 19.5186 255.484 20.3002 254.755 20.5369C254.025 20.7737 253.241 20.3775 253.002 19.6493ZM479.348 18.7886C479.582 18.0583 480.374 17.6588 481.103 17.8956C481.833 18.1324 482.238 18.9208 481.998 19.6493C481.759 20.3775 480.975 20.7737 480.245 20.5369C479.516 20.3002 479.114 19.5186 479.348 18.7886ZM151.171 72.1082C150.717 71.4899 150.856 70.6151 151.476 70.1638C152.096 69.7126 152.971 69.8494 153.42 70.4712C153.868 71.0917 153.729 71.9588 153.11 72.4092C152.491 72.8596 151.623 72.7253 151.171 72.1082ZM581.58 70.4712C582.029 69.8494 582.904 69.7126 583.524 70.1638C584.144 70.6151 584.283 71.4899 583.829 72.1082C583.377 72.7253 582.509 72.8596 581.89 72.4092C581.271 71.9588 581.132 71.0917 581.58 70.4712ZM70.4712 153.42C69.8494 152.971 69.7126 152.096 70.1638 151.476C70.6151 150.856 71.4899 150.717 72.1082 151.171C72.7253 151.623 72.8596 152.491 72.4092 153.11C71.9588 153.729 71.0917 153.868 70.4712 153.42ZM662.892 151.171C663.51 150.717 664.385 150.856 664.836 151.476C665.287 152.096 665.151 152.971 664.529 153.42C663.908 153.868 663.041 153.729 662.591 153.11C662.14 152.491 662.275 151.623 662.892 151.171ZM18.7886 255.652C18.0583 255.418 17.6588 254.626 17.8956 253.897C18.1324 253.167 18.9208 252.762 19.6493 253.002C20.3775 253.241 20.7737 254.025 20.5369 254.755C20.3002 255.484 19.5186 255.886 18.7886 255.652ZM715.351 253.002C716.079 252.762 716.868 253.167 717.104 253.897C717.341 254.626 716.942 255.418 716.211 255.652C715.481 255.886 714.7 255.484 714.463 254.755C714.226 254.025 714.623 253.241 715.351 253.002ZM0 367.5C0 367.495 1.07935e-07 367.49 3.23803e-07 367.484C3.21716e-05 366.718 0.624294 366.098 1.39116 366.101C2.15802 366.104 2.77708 366.733 2.77708 367.5C2.77708 368.267 2.15802 368.896 1.39116 368.899C0.624294 368.902 3.21078e-05 368.282 3.22572e-07 367.516C1.07525e-07 367.51 0 367.505 0 367.5ZM733.609 366.101C734.376 366.098 735 366.718 735 367.484C735 367.49 735 367.495 735 367.5C735 367.505 735 367.51 735 367.516C735 368.282 734.376 368.902 733.609 368.899C732.842 368.896 732.223 368.267 732.223 367.5C732.223 366.733 732.842 366.104 733.609 366.101ZM19.6493 481.998C18.9208 482.238 18.1324 481.833 17.8956 481.103C17.6588 480.374 18.0583 479.582 18.7886 479.348C19.5186 479.114 20.3002 479.516 20.5369 480.245C20.7737 480.975 20.3775 481.759 19.6493 481.998ZM716.211 479.348C716.942 479.582 717.341 480.374 717.104 481.103C716.868 481.833 716.079 482.238 715.351 481.998C714.622 481.759 714.226 480.975 714.463 480.245C714.7 479.516 715.481 479.114 716.211 479.348ZM72.1082 583.829C71.4899 584.283 70.6151 584.144 70.1638 583.524C69.7126 582.904 69.8494 582.029 70.4712 581.58C71.0917 581.132 71.9588 581.271 72.4092 581.89C72.8596 582.509 72.7253 583.377 72.1082 583.829ZM664.529 581.58C665.151 582.029 665.287 582.904 664.836 583.524C664.385 584.144 663.51 584.283 662.892 583.829C662.275 583.377 662.14 582.509 662.591 581.89C663.041 581.271 663.908 581.132 664.529 581.58ZM153.42 664.529C152.971 665.151 152.096 665.287 151.476 664.836C150.856 664.385 150.717 663.51 151.171 662.892C151.623 662.275 152.491 662.14 153.11 662.591C153.729 663.041 153.868 663.908 153.42 664.529ZM583.829 662.892C584.283 663.51 584.144 664.385 583.524 664.836C582.904 665.287 582.029 665.151 581.58 664.529C581.132 663.908 581.271 663.041 581.89 662.591C582.509 662.14 583.377 662.275 583.829 662.892ZM255.652 716.211C255.418 716.942 254.626 717.341 253.897 717.104C253.167 716.868 252.762 716.079 253.002 715.351C253.241 714.623 254.025 714.226 254.755 714.463C255.484 714.7 255.886 715.481 255.652 716.211ZM481.998 715.351C482.238 716.079 481.833 716.868 481.103 717.104C480.374 717.341 479.582 716.942 479.348 716.211C479.114 715.481 479.516 714.7 480.245 714.463C480.975 714.226 481.759 714.622 481.998 715.351ZM367.5 735C367.495 735 367.49 735 367.484 735C366.718 735 366.098 734.376 366.101 733.609C366.104 732.842 366.733 732.223 367.5 732.223C368.267 732.223 368.896 732.842 368.899 733.609C368.902 734.376 368.282 735 367.516 735C367.51 735 367.505 735 367.5 735Z" fill="black"/>
</svg>
