<svg width="155" height="155" viewBox="0 0 155 155" fill="none" xmlns="http://www.w3.org/2000/svg">
<path fill-rule="evenodd" clip-rule="evenodd" d="M155 77.5C155 78.0003 154.589 78.4012 154.089 78.3955L153.878 78.393C153.39 78.3875 153 77.9876 153 77.5C153 77.0124 153.39 76.6125 153.878 76.607L154.089 76.6045C154.589 76.5988 155 76.9997 155 77.5ZM151.226 53.5428C151.38 54.0172 151.114 54.5242 150.638 54.6727L150.431 54.7374C149.967 54.882 149.474 54.6225 149.324 54.1605C149.174 53.6985 149.421 53.2001 149.881 53.0446L150.087 52.9751C150.559 52.8155 151.072 53.0684 151.226 53.5428ZM140.204 31.9441C140.497 32.3466 140.401 32.9099 139.995 33.1982L139.816 33.3256C139.42 33.6065 138.872 33.5132 138.587 33.1209C138.301 32.7287 138.381 32.1788 138.77 31.8888L138.946 31.7573C139.345 31.4596 139.911 31.5415 140.204 31.9441ZM123.056 14.7963C123.459 15.0893 123.54 15.6545 123.243 16.0537L123.111 16.2301C122.821 16.619 122.271 16.6988 121.879 16.4134C121.487 16.1279 121.393 15.5799 121.674 15.1844L121.802 15.005C122.09 14.599 122.653 14.5033 123.056 14.7963ZM101.457 3.77384C101.932 3.92788 102.185 4.44066 102.025 4.91318L101.955 5.11912C101.8 5.57935 101.302 5.8261 100.84 5.67607C100.377 5.52604 100.118 5.03321 100.263 4.56946L100.327 4.36194C100.476 3.8858 100.983 3.61981 101.457 3.77384ZM78.3955 0.910983C78.4012 0.410725 78.0003 0 77.5 0C76.9997 0 76.5988 0.410721 76.6045 0.910976L76.607 1.12217C76.6125 1.60977 77.0124 2 77.5 2C77.9876 2 78.3875 1.60977 78.393 1.12216L78.3955 0.910983ZM53.5428 3.77385C54.0172 3.61981 54.5242 3.8858 54.6727 4.36194L54.7374 4.56946C54.882 5.03322 54.6225 5.52604 54.1605 5.67607C53.6985 5.8261 53.2001 5.57935 53.0446 5.11912L52.9751 4.91318C52.8155 4.44066 53.0684 3.92788 53.5428 3.77385ZM31.9441 14.7963C32.3466 14.5033 32.9099 14.599 33.1982 15.005L33.3256 15.1844C33.6065 15.5799 33.5132 16.1279 33.1209 16.4134C32.7287 16.6988 32.1788 16.619 31.8888 16.2301L31.7573 16.0537C31.4596 15.6545 31.5415 15.0893 31.9441 14.7963ZM14.7963 31.9441C15.0893 31.5415 15.6545 31.4596 16.0537 31.7573L16.2301 31.8888C16.619 32.1788 16.6988 32.7287 16.4134 33.1209C16.1279 33.5132 15.5799 33.6065 15.1844 33.3257L15.005 33.1982C14.599 32.9099 14.5033 32.3467 14.7963 31.9441ZM3.77384 53.5428C3.92788 53.0684 4.44066 52.8155 4.91318 52.9751L5.11912 53.0446C5.57935 53.2001 5.8261 53.6985 5.67607 54.1605C5.52604 54.6225 5.03321 54.882 4.56946 54.7374L4.36194 54.6727C3.8858 54.5242 3.61981 54.0172 3.77384 53.5428ZM0.910983 76.6045C0.410725 76.5988 0 76.9997 0 77.5C0 78.0003 0.410721 78.4012 0.910976 78.3955L1.12217 78.393C1.60977 78.3875 2 77.9876 2 77.5C2 77.0124 1.60977 76.6125 1.12216 76.607L0.910983 76.6045ZM3.77384 101.457C3.61981 100.983 3.8858 100.476 4.36194 100.327L4.56946 100.263C5.03322 100.118 5.52604 100.377 5.67607 100.84C5.8261 101.302 5.57935 101.8 5.11912 101.955L4.91318 102.025C4.44066 102.185 3.92788 101.932 3.77384 101.457ZM14.7963 123.056C14.5033 122.653 14.599 122.09 15.005 121.802L15.1844 121.674C15.5799 121.393 16.1279 121.487 16.4134 121.879C16.6988 122.271 16.619 122.821 16.2301 123.111L16.0537 123.243C15.6545 123.54 15.0893 123.459 14.7963 123.056ZM31.9441 140.204C31.5415 139.911 31.4596 139.346 31.7573 138.946L31.8888 138.77C32.1788 138.381 32.7287 138.301 33.121 138.587C33.5132 138.872 33.6065 139.42 33.3257 139.816L33.1982 139.995C32.9099 140.401 32.3467 140.497 31.9441 140.204ZM53.5428 151.226C53.0684 151.072 52.8155 150.559 52.9751 150.087L53.0446 149.881C53.2001 149.421 53.6985 149.174 54.1605 149.324C54.6225 149.474 54.882 149.967 54.7374 150.431L54.6727 150.638C54.5242 151.114 54.0172 151.38 53.5428 151.226ZM77.5 155C76.9997 155 76.5988 154.589 76.6045 154.089L76.607 153.878C76.6125 153.39 77.0124 153 77.5 153C77.9876 153 78.3875 153.39 78.393 153.878L78.3955 154.089C78.4012 154.589 78.0003 155 77.5 155ZM101.457 151.226C100.983 151.38 100.476 151.114 100.327 150.638L100.263 150.431C100.118 149.967 100.377 149.474 100.84 149.324C101.302 149.174 101.8 149.421 101.955 149.881L102.025 150.087C102.185 150.559 101.932 151.072 101.457 151.226ZM123.056 140.204C122.653 140.497 122.09 140.401 121.802 139.995L121.674 139.816C121.393 139.42 121.487 138.872 121.879 138.587C122.271 138.301 122.821 138.381 123.111 138.77L123.243 138.946C123.54 139.345 123.459 139.911 123.056 140.204ZM138.946 123.243C139.345 123.54 139.911 123.459 140.204 123.056C140.497 122.653 140.401 122.09 139.995 121.802L139.816 121.674C139.42 121.393 138.872 121.487 138.587 121.879C138.301 122.271 138.381 122.821 138.77 123.111L138.946 123.243ZM151.226 101.457C151.072 101.932 150.559 102.185 150.087 102.025L149.881 101.955C149.421 101.8 149.174 101.302 149.324 100.84C149.474 100.377 149.967 100.118 150.431 100.263L150.638 100.327C151.114 100.476 151.38 100.983 151.226 101.457Z" fill="black"/>
</svg>
